<svg width="28" height="37" viewBox="0 0 28 37" fill="none" xmlns="http://www.w3.org/2000/svg">
<g clip-path="url(#clip0_4_2)">
<path d="M27.3146 22.4457L15.6479 34.0082C15.1958 34.4635 14.5979 34.6875 14 34.6875C13.4021 34.6875 12.8056 34.4617 12.3506 34.01L0.683958 22.4475C-0.2275 21.5442 -0.2275 20.0808 0.683958 19.1775C1.59542 18.2742 3.07198 18.2742 3.98344 19.1775L11.6667 26.7961V4.625C11.6667 3.34662 12.7116 2.37754 13.9344 2.37754C15.1572 2.37754 16.3333 3.34662 16.3333 4.625V26.7961L24.0187 19.1793C24.9302 18.276 26.4068 18.276 27.3182 19.1793C28.2297 20.0826 28.226 21.5424 27.3146 22.4457Z" fill="white"/>
</g>
<defs>
<clipPath id="clip0_4_2">
<rect width="28" height="37" fill="white"/>
</clipPath>
</defs>
</svg>
